# xmcd
#
# Track frame offsets:
#	150
#	23508
#	44800
#	71105
#	88795
#	105892
#	123240
#	137808
#	160691
#	180980
#	199896
#	215363
#
# Disc length: 2990
#
# Revision: 1
# Processed by: cddbd v1.5.1PL0 Copyright (c) Steve Scherf et al.
# Submitted via: dBpowerAMP V4.0
# Normalized: r0:TRMNUM
#
DISCID=a00bac0c
DTITLE=Doobie Brothers - The Doobie Brothers Live
DYEAR=2004
DGENRE=Blues
TTITLE0=Listen to the music
TTITLE1=Jesus is just alright
TTITLE2=Long train runnin'
TTITLE3=China Grove
TTITLE4=Take me in your arms ( rock me a little while)
TTITLE5=The doctor
TTITLE6=Eyes of silver
TTITLE7=Another park, another sunday
TTITLE8=Black water
TTITLE9=Depending on you
TTITLE10=Neal's fandango
TTITLE11=Slack key soquel rag
EXTD=
EXTT0=
EXTT1=
EXTT2=
EXTT3=
EXTT4=
EXTT5=
EXTT6=
EXTT7=
EXTT8=
EXTT9=
EXTT10=
EXTT11=
PLAYORDER=
